<svg width="48" height="48" viewBox="0 0 48 48" fill="none" xmlns="http://www.w3.org/2000/svg">
<path fill-rule="evenodd" clip-rule="evenodd" d="M20.5127 6.20391C20.5127 4.00263 22.0309 2.21814 23.9038 2.21814C24.8032 2.21814 25.6657 2.63807 26.3017 3.38555C26.9376 4.13302 27.2949 5.14682 27.2949 6.20391C27.2949 8.40519 25.7767 10.1897 23.9038 10.1897C22.0309 10.1897 20.5127 8.40519 20.5127 6.20391Z" fill="#F1C232"/>
<path fill-rule="evenodd" clip-rule="evenodd" d="M20.409 11.1775H27.3978L28.8967 12.6725V20.1473H18.9102V12.6725L20.409 11.1775Z" fill="#F1C232"/>
<path fill-rule="evenodd" clip-rule="evenodd" d="M26 35.4753L27.9084 27.8613H38.1938L40.1022 35.4753H26Z" fill="#F1C232"/>
<path fill-rule="evenodd" clip-rule="evenodd" d="M37.2903 22.0396L36.041 27.0236H30.0618L28.8125 22.0396H37.2903Z" fill="#F1C232"/>
<path fill-rule="evenodd" clip-rule="evenodd" d="M32.2783 18.5251C32.2783 17.984 32.6244 17.5454 33.0514 17.5454C33.2564 17.5454 33.4531 17.6486 33.5981 17.8324C33.743 18.0161 33.8245 18.2653 33.8245 18.5251C33.8245 19.0662 33.4784 19.5048 33.0514 19.5048C32.6244 19.5048 32.2783 19.0662 32.2783 18.5251Z" fill="#F1C232"/>
<path fill-rule="evenodd" clip-rule="evenodd" d="M7.8291 24.8838L15.3625 20.1479L22.6136 24.8838H7.8291Z" fill="#F1C232"/>
<path fill-rule="evenodd" clip-rule="evenodd" d="M8.11816 32.0928H22.9027V35.4719H8.11816V32.0928Z" fill="#F1C232"/>
<path fill-rule="evenodd" clip-rule="evenodd" d="M9.55078 26.1204H11.7936V30.8562H9.55078V26.1204Z" fill="#F1C232"/>
<path fill-rule="evenodd" clip-rule="evenodd" d="M12.7764 26.1204H15.0192V30.8562H12.7764V26.1204Z" fill="#F1C232"/>
<path fill-rule="evenodd" clip-rule="evenodd" d="M16.002 26.1204H18.2448V30.8562H16.002V26.1204Z" fill="#F1C232"/>
<path fill-rule="evenodd" clip-rule="evenodd" d="M19.2275 26.1204H21.4704V30.8562H19.2275V26.1204Z" fill="#F1C232"/>
<path fill-rule="evenodd" clip-rule="evenodd" d="M5.68601 23.5329C3.15312 21.0065 4.1547 15.9116 7.9231 12.1529C11.6915 8.3943 16.7997 7.39532 19.3326 9.92165C16.2783 10.0884 12.9008 11.7625 10.2162 14.4401C7.5316 17.1177 5.85323 20.4865 5.68601 23.5329Z" fill="#F1C232"/>
<path fill-rule="evenodd" clip-rule="evenodd" d="M33.5538 38.0076C33.5538 41.579 29.2332 44.4742 23.9034 44.4742C18.5736 44.4742 14.2529 41.579 14.2529 38.0076C16.5311 40.043 20.1064 41.2409 23.9034 41.2409C27.7003 41.2409 31.2757 40.043 33.5538 38.0076Z" fill="#F1C232"/>
<path fill-rule="evenodd" clip-rule="evenodd" d="M42.544 23.5329C45.0769 21.0065 44.0754 15.9116 40.307 12.1529C36.5386 8.3943 31.4304 7.39532 28.8975 9.92165C31.9518 10.0884 35.3293 11.7625 38.0139 14.4401C40.6985 17.1177 42.3768 20.4865 42.544 23.5329Z" fill="#F1C232"/>
</svg>
