<svg width="0" height="0" class="hidden">
    <symbol fill="none" xmlns="http://www.w3.org/2000/svg" viewBox="0 0 24 24" id="magnify">
        <path d="M15.5 14h-.79l-.28-.27A6.471 6.471 0 0016 9.5 6.5 6.5 0 109.5 16c1.61 0 3.09-.59 4.23-1.57l.27.28v.79l5 4.99L20.49 19l-4.99-5zm-6 0C7.01 14 5 11.99 5 9.5S7.01 5 9.5 5 14 7.01 14 9.5 11.99 14 9.5 14z" fill="currentColor"></path>
    </symbol>
    <symbol fill="none" xmlns="http://www.w3.org/2000/svg" viewBox="0 0 24 24" id="cross">
        <path d="M19 6.41L17.59 5 12 10.59 6.41 5 5 6.41 10.59 12 5 17.59 6.41 19 12 13.41 17.59 19 19 17.59 13.41 12 19 6.41z" fill="currentColor"></path>
    </symbol>

    <symbol fill="none" xmlns="http://www.w3.org/2000/svg" viewBox="0 0 16 16" id="fallbackAvatar">
        <path fill-rule="evenodd" d="M8 0C3.58 0 0 3.58 0 8c0 3.54 2.29 6.53 5.47 7.59.4.07.55-.17.55-.38 0-.19-.01-.82-.01-1.49-2.01.37-2.53-.49-2.69-.94-.09-.23-.48-.94-.82-1.13-.28-.15-.68-.52-.01-.53.63-.01 1.08.58 1.23.82.72 1.21 1.87.87 2.33.66.07-.52.28-.87.51-1.07-1.78-.2-3.64-.89-3.64-3.95 0-.87.31-1.59.82-2.15-.08-.2-.36-1.02.08-2.12 0 0 .67-.21 2.2.82.64-.18 1.32-.27 2-.27.68 0 1.36.09 2 .27 1.53-1.04 2.2-.82 2.2-.82.44 1.1.16 1.92.08 2.12.51.56.82 1.27.82 2.15 0 3.07-1.87 3.75-3.65 3.95.29.25.54.73.54 1.48 0 1.07-.01 1.93-.01 2.2 0 .21.15.46.55.38A8.013 8.013 0 0016 8c0-4.42-3.58-8-8-8z">
        </path>
    </symbol>

    <symbol fill="none" xmlns="http://www.w3.org/2000/svg" viewBox="0 0 72 72" id="share">
        <path d="M57.15 51.8L28.1 36l29.05-15.8c2.25-.9 3.45-3.45 2.55-5.85a4.546 4.546 0 00-5.85-2.55l-39 20C13.2 32.4 12 34.2 12 36c0 1.8 1.2 3.6 2.85 4.2l39 20c.6.15 1.05.3 1.65.3 1.8 0 3.45-1.05 4.2-2.85.9-2.4-.3-4.95-2.55-5.85z" fill="#FFE185"></path>
        <path d="M16.5 46.5C22.299 46.5 27 41.799 27 36s-4.701-10.5-10.5-10.5S6 30.201 6 36s4.701 10.5 10.5 10.5zm39-20C61.299 26.5 66 21.799 66 16S61.299 5.5 55.5 5.5 45 10.201 45 16s4.701 10.5 10.5 10.5zm0 41C61.299 67.5 66 62.799 66 57s-4.701-10.5-10.5-10.5S45 51.201 45 57s4.701 10.5 10.5 10.5z" fill="#F1C232"></path>
    </symbol>

    <symbol fill="none" xmlns="http://www.w3.org/2000/svg" viewBox="0 0 72 72" id="document">
        <path d="M60 67.5H12v-63h33l15 15v48z" fill="#F1C232"></path>
        <path d="M57.75 21H43.5V6.75L57.75 21z" fill="#FEB"></path>
        <path d="M24.666 47.667h6.667v6.666h-6.666v-6.666zm18.867-7.8L39.8 36.133a.644.644 0 010-.933l3.733-3.733a.644.644 0 01.934 0L48.2 35.2a.644.644 0 010 .933l-3.733 3.734a.644.644 0 01-.934 0zM28 39.667a4 4 0 100-8 4 4 0 000 8zM44 55a4 4 0 100-8 4 4 0 000 8zM27.334 43h1.333v3.333h-1.334V43z" fill="#fff"></path>
        <path d="M28 41l-2 2.667h4L28 41zm5.334-6h3.333v1.333h-3.334V35z" fill="#fff"></path>
        <path d="M38.667 35.667l-2.667-2v4l2.667-2zM43.334 41h1.333v3.333h-1.334V41z" fill="#fff"></path>
        <path d="M44 46.333l2-2.666h-4l2 2.666z" fill="#fff"></path>
    </symbol>

    <symbol fill="none" xmlns="http://www.w3.org/2000/svg" viewBox="0 0 72 72" id="idea">
        <path d="M36 63c16.569 0 30-13.431 30-30C66 16.431 52.569 3 36 3 19.431 3 6 16.431 6 33c0 16.569 13.431 30 30 30z" fill="#FEB"></path>
        <path d="M55.5 33c0-11.55-9.9-20.7-21.75-19.35-9 1.05-16.2 8.25-17.1 17.25-.75 6.9 2.1 13.05 6.9 16.95 2.1 1.8 3.45 4.35 3.45 7.2v.45h18v-.15c0-2.7 1.2-5.4 3.3-7.2 4.35-3.6 7.2-9 7.2-15.15z" fill="#F1C232"></path>
        <path d="M45.9 30.3l-4.5-3c-.45-.3-1.2-.3-1.65 0L36 29.7l-3.6-2.4c-.45-.3-1.2-.3-1.65 0l-4.5 3c-.3.3-.6.6-.6 1.05 0 .45 0 .9.3 1.2l5.7 7.05v15.9h3V39c0-.3-.15-.6-.3-.9l-4.95-6.15 2.25-1.5 3.6 2.4c.45.3 1.2.3 1.65 0l3.6-2.4 2.25 1.5-4.95 6.15c-.15.3-.3.6-.3.9v16.5h3V39.6l5.7-7.05c.3-.3.45-.75.3-1.2-.15-.45-.3-.9-.6-1.05z" fill="#FEB"></path>
        <path d="M36 70.5a4.5 4.5 0 100-9 4.5 4.5 0 000 9z" fill="#F1C232"></path>
        <path d="M39 67.5h-6c-3.3 0-6-2.7-6-6V54h18v7.5c0 3.3-2.7 6-6 6z" fill="#F1C232"></path>
        <path d="M45 61.5l-17.4 2.4c.45 1.05 1.35 2.1 2.4 2.7l14.1-1.95c.6-.9.9-1.95.9-3.15zm-18-3.45v3l18-2.55v-3l-18 2.55z" fill="#F1C232"></path>
    </symbol>

    <symbol fill="none" xmlns="http://www.w3.org/2000/svg"  viewBox="0 0 48 48" id="logo">
        <path fill-rule="evenodd" clip-rule="evenodd" d="M20.5127 6.20391C20.5127 4.00263 22.0309 2.21814 23.9038 2.21814C24.8032 2.21814 25.6657 2.63807 26.3017 3.38555C26.9376 4.13302 27.2949 5.14682 27.2949 6.20391C27.2949 8.40519 25.7767 10.1897 23.9038 10.1897C22.0309 10.1897 20.5127 8.40519 20.5127 6.20391Z" fill="#F1C232"/>
        <path fill-rule="evenodd" clip-rule="evenodd" d="M20.409 11.1775H27.3978L28.8967 12.6725V20.1473H18.9102V12.6725L20.409 11.1775Z" fill="#F1C232"/>
        <path fill-rule="evenodd" clip-rule="evenodd" d="M26 35.4753L27.9084 27.8613H38.1938L40.1022 35.4753H26Z" fill="#F1C232"/>
        <path fill-rule="evenodd" clip-rule="evenodd" d="M37.2903 22.0396L36.041 27.0236H30.0618L28.8125 22.0396H37.2903Z" fill="#F1C232"/>
        <path fill-rule="evenodd" clip-rule="evenodd" d="M32.2783 18.5251C32.2783 17.984 32.6244 17.5454 33.0514 17.5454C33.2564 17.5454 33.4531 17.6486 33.5981 17.8324C33.743 18.0161 33.8245 18.2653 33.8245 18.5251C33.8245 19.0662 33.4784 19.5048 33.0514 19.5048C32.6244 19.5048 32.2783 19.0662 32.2783 18.5251Z" fill="#F1C232"/>
        <path fill-rule="evenodd" clip-rule="evenodd" d="M7.8291 24.8838L15.3625 20.1479L22.6136 24.8838H7.8291Z" fill="#F1C232"/>
        <path fill-rule="evenodd" clip-rule="evenodd" d="M8.11816 32.0928H22.9027V35.4719H8.11816V32.0928Z" fill="#F1C232"/>
        <path fill-rule="evenodd" clip-rule="evenodd" d="M9.55078 26.1204H11.7936V30.8562H9.55078V26.1204Z" fill="#F1C232"/>
        <path fill-rule="evenodd" clip-rule="evenodd" d="M12.7764 26.1204H15.0192V30.8562H12.7764V26.1204Z" fill="#F1C232"/>
        <path fill-rule="evenodd" clip-rule="evenodd" d="M16.002 26.1204H18.2448V30.8562H16.002V26.1204Z" fill="#F1C232"/>
        <path fill-rule="evenodd" clip-rule="evenodd" d="M19.2275 26.1204H21.4704V30.8562H19.2275V26.1204Z" fill="#F1C232"/>
        <path fill-rule="evenodd" clip-rule="evenodd" d="M5.68601 23.5329C3.15312 21.0065 4.1547 15.9116 7.9231 12.1529C11.6915 8.3943 16.7997 7.39532 19.3326 9.92165C16.2783 10.0884 12.9008 11.7625 10.2162 14.4401C7.5316 17.1177 5.85323 20.4865 5.68601 23.5329Z" fill="#F1C232"/>
        <path fill-rule="evenodd" clip-rule="evenodd" d="M33.5538 38.0076C33.5538 41.579 29.2332 44.4742 23.9034 44.4742C18.5736 44.4742 14.2529 41.579 14.2529 38.0076C16.5311 40.043 20.1064 41.2409 23.9034 41.2409C27.7003 41.2409 31.2757 40.043 33.5538 38.0076Z" fill="#F1C232"/>
        <path fill-rule="evenodd" clip-rule="evenodd" d="M42.544 23.5329C45.0769 21.0065 44.0754 15.9116 40.307 12.1529C36.5386 8.3943 31.4304 7.39532 28.8975 9.92165C31.9518 10.0884 35.3293 11.7625 38.0139 14.4401C40.6985 17.1177 42.3768 20.4865 42.544 23.5329Z" fill="#F1C232"/>
    </symbol>
    <symbol fill="none" xmlns="http://www.w3.org/2000/svg" viewBox="0 0 24 24" id="filter">
        <path d="M10 18H14V16H10V18ZM3 6V8H21V6H3ZM6 13H18V11H6V13Z" fill="currentColor"></path>
    </symbol>
</svg>
