<svg width="0" height="0" class="hidden">
    <symbol fill="none" xmlns="http://www.w3.org/2000/svg" viewBox="0 0 24 24" id="magnify">
        <path d="M15.5 14h-.79l-.28-.27A6.471 6.471 0 0016 9.5 6.5 6.5 0 109.5 16c1.61 0 3.09-.59 4.23-1.57l.27.28v.79l5 4.99L20.49 19l-4.99-5zm-6 0C7.01 14 5 11.99 5 9.5S7.01 5 9.5 5 14 7.01 14 9.5 11.99 14 9.5 14z" fill="currentColor"></path>
    </symbol>
    <symbol fill="none" xmlns="http://www.w3.org/2000/svg" viewBox="0 0 24 24" id="cross">
        <path d="M19 6.41L17.59 5 12 10.59 6.41 5 5 6.41 10.59 12 5 17.59 6.41 19 12 13.41 17.59 19 19 17.59 13.41 12 19 6.41z" fill="currentColor"></path>
    </symbol>

    <symbol fill="none" xmlns="http://www.w3.org/2000/svg" viewBox="0 0 16 16" id="fallbackAvatar">
        <path fill-rule="evenodd" d="M8 0C3.58 0 0 3.58 0 8c0 3.54 2.29 6.53 5.47 7.59.4.07.55-.17.55-.38 0-.19-.01-.82-.01-1.49-2.01.37-2.53-.49-2.69-.94-.09-.23-.48-.94-.82-1.13-.28-.15-.68-.52-.01-.53.63-.01 1.08.58 1.23.82.72 1.21 1.87.87 2.33.66.07-.52.28-.87.51-1.07-1.78-.2-3.64-.89-3.64-3.95 0-.87.31-1.59.82-2.15-.08-.2-.36-1.02.08-2.12 0 0 .67-.21 2.2.82.64-.18 1.32-.27 2-.27.68 0 1.36.09 2 .27 1.53-1.04 2.2-.82 2.2-.82.44 1.1.16 1.92.08 2.12.51.56.82 1.27.82 2.15 0 3.07-1.87 3.75-3.65 3.95.29.25.54.73.54 1.48 0 1.07-.01 1.93-.01 2.2 0 .21.15.46.55.38A8.013 8.013 0 0016 8c0-4.42-3.58-8-8-8z">
        </path>
    </symbol>

    <symbol fill="none" xmlns="http://www.w3.org/2000/svg" viewBox="0 0 72 72" id="share">
        <path d="M57.15 51.8L28.1 36l29.05-15.8c2.25-.9 3.45-3.45 2.55-5.85a4.546 4.546 0 00-5.85-2.55l-39 20C13.2 32.4 12 34.2 12 36c0 1.8 1.2 3.6 2.85 4.2l39 20c.6.15 1.05.3 1.65.3 1.8 0 3.45-1.05 4.2-2.85.9-2.4-.3-4.95-2.55-5.85z" fill="#FFE185"></path>
        <path d="M16.5 46.5C22.299 46.5 27 41.799 27 36s-4.701-10.5-10.5-10.5S6 30.201 6 36s4.701 10.5 10.5 10.5zm39-20C61.299 26.5 66 21.799 66 16S61.299 5.5 55.5 5.5 45 10.201 45 16s4.701 10.5 10.5 10.5zm0 41C61.299 67.5 66 62.799 66 57s-4.701-10.5-10.5-10.5S45 51.201 45 57s4.701 10.5 10.5 10.5z" fill="#F1C232"></path>
    </symbol>

    <symbol fill="none" xmlns="http://www.w3.org/2000/svg" viewBox="0 0 72 72" id="document">
        <path d="M60 67.5H12v-63h33l15 15v48z" fill="#F1C232"></path>
        <path d="M57.75 21H43.5V6.75L57.75 21z" fill="#FEB"></path>
        <path d="M24.666 47.667h6.667v6.666h-6.666v-6.666zm18.867-7.8L39.8 36.133a.644.644 0 010-.933l3.733-3.733a.644.644 0 01.934 0L48.2 35.2a.644.644 0 010 .933l-3.733 3.734a.644.644 0 01-.934 0zM28 39.667a4 4 0 100-8 4 4 0 000 8zM44 55a4 4 0 100-8 4 4 0 000 8zM27.334 43h1.333v3.333h-1.334V43z" fill="#fff"></path>
        <path d="M28 41l-2 2.667h4L28 41zm5.334-6h3.333v1.333h-3.334V35z" fill="#fff"></path>
        <path d="M38.667 35.667l-2.667-2v4l2.667-2zM43.334 41h1.333v3.333h-1.334V41z" fill="#fff"></path>
        <path d="M44 46.333l2-2.666h-4l2 2.666z" fill="#fff"></path>
    </symbol>

    <symbol fill="none" xmlns="http://www.w3.org/2000/svg" viewBox="0 0 72 72" id="idea">
        <path d="M36 63c16.569 0 30-13.431 30-30C66 16.431 52.569 3 36 3 19.431 3 6 16.431 6 33c0 16.569 13.431 30 30 30z" fill="#FEB"></path>
        <path d="M55.5 33c0-11.55-9.9-20.7-21.75-19.35-9 1.05-16.2 8.25-17.1 17.25-.75 6.9 2.1 13.05 6.9 16.95 2.1 1.8 3.45 4.35 3.45 7.2v.45h18v-.15c0-2.7 1.2-5.4 3.3-7.2 4.35-3.6 7.2-9 7.2-15.15z" fill="#F1C232"></path>
        <path d="M45.9 30.3l-4.5-3c-.45-.3-1.2-.3-1.65 0L36 29.7l-3.6-2.4c-.45-.3-1.2-.3-1.65 0l-4.5 3c-.3.3-.6.6-.6 1.05 0 .45 0 .9.3 1.2l5.7 7.05v15.9h3V39c0-.3-.15-.6-.3-.9l-4.95-6.15 2.25-1.5 3.6 2.4c.45.3 1.2.3 1.65 0l3.6-2.4 2.25 1.5-4.95 6.15c-.15.3-.3.6-.3.9v16.5h3V39.6l5.7-7.05c.3-.3.45-.75.3-1.2-.15-.45-.3-.9-.6-1.05z" fill="#FEB"></path>
        <path d="M36 70.5a4.5 4.5 0 100-9 4.5 4.5 0 000 9z" fill="#F1C232"></path>
        <path d="M39 67.5h-6c-3.3 0-6-2.7-6-6V54h18v7.5c0 3.3-2.7 6-6 6z" fill="#F1C232"></path>
        <path d="M45 61.5l-17.4 2.4c.45 1.05 1.35 2.1 2.4 2.7l14.1-1.95c.6-.9.9-1.95.9-3.15zm-18-3.45v3l18-2.55v-3l-18 2.55z" fill="#F1C232"></path>
    </symbol>

    <symbol fill="none" xmlns="http://www.w3.org/2000/svg"  viewBox="0 0 1081 690" id="logo">
        <path d="M664.05 181.455C706.743 142.897 762.019 122.322 829.878 119.731H1080.66V0.169434H828.622C703.055 4.1363 606.25 49.0412 539.66 132.623C473.069 49.0412 376.343 4.1363 250.697 0.169434H0.660156V689.333H250.697C376.265 684.176 473.069 640.461 539.66 556.879C606.367 640.461 702.976 685.485 828.622 689.333H1080.66V572.31H829.878C762.032 569.771 705.487 549.183 664.05 510.626C618.806 469.449 594.949 414.191 594.949 348.619V343.462C594.949 276.62 617.551 222.592 664.05 181.455ZM416.603 509.316C373.91 547.927 318.634 568.502 250.775 571.041H115.005V117.192H249.441C317.287 119.731 373.832 141.628 415.269 180.186C460.513 221.322 483.311 276.62 483.311 342.192V347.31H484.567C484.436 414.191 461.781 468.193 416.603 509.316Z" fill="black"/>
    </symbol>
    <symbol fill="none" xmlns="http://www.w3.org/2000/svg"  viewBox="0 0 1081 930" id="logoText">
        <path d="M0.496094 927.778V761.378H60.9038C79.0105 761.378 94.1515 765.128 106.327 772.627C118.502 779.971 127.633 789.97 133.721 802.626C139.808 815.126 142.852 829.032 142.852 844.344C142.852 861.218 139.496 875.905 132.784 888.405C126.072 900.904 116.551 910.591 104.219 917.466C92.0442 924.341 77.6057 927.778 60.9038 927.778H0.496094ZM110.307 844.344C110.307 833.563 108.356 824.11 104.454 815.985C100.551 807.704 94.9319 801.298 87.5956 796.767C80.2592 792.08 71.362 789.736 60.9038 789.736H32.8072V899.42H60.9038C71.5181 899.42 80.4934 897.076 87.8297 892.389C95.166 887.545 100.707 880.983 104.454 872.702C108.356 864.265 110.307 854.812 110.307 844.344Z" fill="black"/>
        <path d="M163.414 927.778V761.378H195.725V927.778H163.414Z" fill="black"/>
        <path d="M225.726 927.778V761.378H286.134C304.241 761.378 319.382 765.128 331.557 772.627C343.732 779.971 352.863 789.97 358.951 802.626C365.039 815.126 368.082 829.032 368.082 844.344C368.082 861.218 364.726 875.905 358.014 888.405C351.302 900.904 341.781 910.591 329.45 917.466C317.274 924.341 302.836 927.778 286.134 927.778H225.726ZM335.537 844.344C335.537 833.563 333.586 824.11 329.684 815.985C325.781 807.704 320.162 801.298 312.826 796.767C305.489 792.08 296.592 789.736 286.134 789.736H258.037V899.42H286.134C296.748 899.42 305.724 897.076 313.06 892.389C320.396 887.545 325.937 880.983 329.684 872.702C333.586 864.265 335.537 854.812 335.537 844.344Z" fill="black"/>
        <path d="M378.577 843.406C378.577 833.25 380.372 823.329 383.962 813.641C387.708 803.798 393.093 794.892 400.117 786.924C407.141 778.799 415.727 772.393 425.873 767.706C436.019 762.862 447.569 760.44 460.525 760.44C475.822 760.44 489.012 763.799 500.094 770.518C511.333 777.236 519.684 785.986 525.147 796.767L500.329 813.876C497.519 807.626 493.851 802.704 489.324 799.111C484.797 795.361 479.958 792.783 474.807 791.377C469.656 789.814 464.583 789.033 459.588 789.033C451.472 789.033 444.369 790.674 438.282 793.955C432.35 797.236 427.355 801.533 423.297 806.845C419.239 812.157 416.195 818.094 414.166 824.657C412.292 831.219 411.356 837.781 411.356 844.344C411.356 851.687 412.527 858.796 414.868 865.671C417.209 872.389 420.487 878.405 424.702 883.717C429.072 888.873 434.223 893.014 440.155 896.139C446.243 899.107 452.876 900.592 460.057 900.592C465.208 900.592 470.437 899.732 475.744 898.014C481.051 896.295 485.968 893.561 490.495 889.811C495.021 886.061 498.533 881.217 501.031 875.28L527.489 890.514C524.211 898.795 518.825 905.826 511.333 911.607C503.997 917.388 495.724 921.763 486.514 924.732C477.305 927.7 468.173 929.185 459.12 929.185C447.257 929.185 436.409 926.763 426.575 921.919C416.741 916.919 408.234 910.357 401.054 902.232C394.03 893.951 388.488 884.733 384.43 874.577C380.528 864.265 378.577 853.874 378.577 843.406Z" fill="black"/>
        <path d="M613.361 928.95C601.185 928.95 590.103 926.606 580.113 921.919C570.279 917.232 561.772 910.904 554.592 902.935C547.568 894.811 542.105 885.748 538.202 875.749C534.3 865.593 532.349 855.203 532.349 844.578C532.349 833.485 534.378 822.938 538.436 812.938C542.651 802.782 548.348 793.798 555.528 785.986C562.865 778.018 571.45 771.768 581.284 767.237C591.274 762.549 602.2 760.206 614.063 760.206C626.082 760.206 637.009 762.628 646.842 767.471C656.832 772.315 665.339 778.799 672.364 786.924C679.388 795.048 684.851 804.111 688.753 814.11C692.656 824.11 694.607 834.422 694.607 845.047C694.607 855.984 692.577 866.53 688.519 876.686C684.461 886.686 678.763 895.67 671.427 903.638C664.247 911.451 655.662 917.622 645.672 922.153C635.838 926.685 625.068 928.95 613.361 928.95ZM565.128 844.578C565.128 851.765 566.221 858.718 568.406 865.437C570.591 872.155 573.713 878.171 577.772 883.483C581.986 888.639 587.059 892.779 592.991 895.904C599.078 898.873 605.946 900.357 613.595 900.357C621.399 900.357 628.346 898.795 634.433 895.67C640.521 892.389 645.594 888.092 649.652 882.78C653.71 877.311 656.754 871.296 658.784 864.733C660.969 858.015 662.061 851.296 662.061 844.578C662.061 837.391 660.891 830.516 658.549 823.954C656.364 817.235 653.164 811.298 648.95 806.142C644.891 800.829 639.818 796.689 633.731 793.72C627.799 790.595 621.087 789.033 613.595 789.033C605.634 789.033 598.61 790.674 592.522 793.955C586.591 797.08 581.596 801.298 577.537 806.61C573.479 811.923 570.357 817.86 568.172 824.422C566.143 830.985 565.128 837.703 565.128 844.578Z" fill="black"/>
        <path d="M850.276 927.778V818.563L807.663 899.889H789.634L747.021 818.563V927.778H714.71V761.378H749.362L798.531 856.062L848.168 761.378H882.587V927.778H850.276Z" fill="black"/>
        <path d="M1048.18 927.778V818.563L1005.56 899.889H987.536L944.923 818.563V927.778H912.611V761.378H947.264L996.433 856.062L1046.07 761.378H1080.49V927.778H1048.18Z" fill="black"/>
        <path d="M663.929 178.617C706.618 140.708 761.888 120.48 829.74 117.932H1080.5V0.384521H828.484C702.929 4.28457 606.135 48.4331 539.551 130.607C472.968 48.4331 376.252 4.28457 250.619 0.384521H0.607759V677.94H250.619C376.173 672.87 472.968 629.891 539.551 547.717C606.252 629.891 702.851 674.157 828.484 677.94H1080.5V562.888H829.74C761.901 560.392 705.362 540.151 663.929 502.243C618.69 461.76 594.835 407.432 594.835 342.965V337.895C594.835 272.179 617.435 219.06 663.929 178.617ZM416.508 500.956C373.819 538.916 318.549 559.144 250.697 561.64H114.941V115.436H249.363C317.202 117.932 373.741 139.46 415.174 177.369C460.413 217.812 483.209 272.179 483.209 336.647V341.678H484.464C484.333 407.433 461.681 460.525 416.508 500.956Z" fill="black"/>
    </symbol>
    <symbol fill="none" xmlns="http://www.w3.org/2000/svg" viewBox="0 0 24 24" id="filter">
        <path d="M10 18H14V16H10V18ZM3 6V8H21V6H3ZM6 13H18V11H6V13Z" fill="currentColor"></path>
    </symbol>
</svg>
